<?xml version="1.0" encoding="utf-8"?>
<svg xmlns="http://www.w3.org/2000/svg" xmlns:xlink="http://www.w3.org/1999/xlink" style="margin: auto; background: rgb(241, 242, 243); display: block; z-index: 1; position: relative; shape-rendering: auto;" width="1920" height="931" preserveAspectRatio="xMidYMid" viewBox="0 0 1920 931">
<g transform="translate(960,465.5) scale(1,1) translate(-960,-465.5)"><linearGradient id="lg-0.8672375160363328" x1="0" x2="1" y1="0" y2="0">
  <stop stop-color="#52b548" offset="0"></stop>
  <stop stop-color="#41455f" offset="1"></stop>
</linearGradient><path d="M 1539 466 C 1539 636 1257 828 1095 881 C 933 934 642 907 542 769 C 442 631 406 274 506 136 C 606 -2 953 -63 1115 -10 C 1277 43 1539 296 1539 466" fill="url(#lg-0.8672375160363328)" opacity="0.4">
  <animate attributeName="d" dur="10s" repeatCount="indefinite" keyTimes="0;0.3333333333333333;0.6666666666666666;1" calcmod="spline" keySplines="0.3 0.1 0.7 0.9;0.3 0.1 0.7 0.9;0.3 0.1 0.7 0.9" begin="-4s" values="M 1539 466 C 1539 636 1257 828 1095 881 C 933 934 642 907 542 769 C 442 631 406 274 506 136 C 606 -2 953 -63 1115 -10 C 1277 43 1539 296 1539 466;M 1576 466 C 1576 633 1255 835 1096 886 C 937 937 671 882 573 747 C 475 612 369 242 467 107 C 565 -28 944 -26 1103 26 C 1262 78 1576 299 1576 466;M 1562 466 C 1562 627 1240 805 1086 855 C 932 905 597 929 502 798 C 407 667 474 312 569 181 C 664 50 944 -8 1098 42 C 1252 92 1562 305 1562 466;M 1539 466 C 1539 636 1257 828 1095 881 C 933 934 642 907 542 769 C 442 631 406 274 506 136 C 606 -2 953 -63 1115 -10 C 1277 43 1539 296 1539 466"></animate>
</path><path d="M 1550 466 C 1550 625 1232 789 1081 838 C 930 887 607 918 514 790 C 421 662 439 282 532 154 C 625 26 942 8 1093 57 C 1244 106 1550 307 1550 466" fill="url(#lg-0.8672375160363328)" opacity="0.4">
  <animate attributeName="d" dur="10s" repeatCount="indefinite" keyTimes="0;0.3333333333333333;0.6666666666666666;1" calcmod="spline" keySplines="0.3 0.1 0.7 0.9;0.3 0.1 0.7 0.9;0.3 0.1 0.7 0.9" begin="-4s" values="M 1550 466 C 1550 625 1232 789 1081 838 C 930 887 607 918 514 790 C 421 662 439 282 532 154 C 625 26 942 8 1093 57 C 1244 106 1550 307 1550 466;M 1505 466 C 1505 623 1225 772 1076 821 C 927 870 587 931 495 804 C 403 677 477 308 569 181 C 661 54 923 72 1072 120 C 1221 168 1505 309 1505 466;M 1549 466 C 1549 626 1249 837 1097 887 C 945 937 677 869 583 739 C 489 609 457 298 551 168 C 645 38 930 41 1082 91 C 1234 141 1549 306 1549 466;M 1550 466 C 1550 625 1232 789 1081 838 C 930 887 607 918 514 790 C 421 662 439 282 532 154 C 625 26 942 8 1093 57 C 1244 106 1550 307 1550 466"></animate>
</path><path d="M 1579 466 C 1579 646 1262 813 1091 869 C 920 925 554 982 448 837 C 342 692 436 307 542 162 C 648 17 925 -9 1096 46 C 1267 101 1579 286 1579 466" fill="url(#lg-0.8672375160363328)" opacity="0.4">
  <animate attributeName="d" dur="10s" repeatCount="indefinite" keyTimes="0;0.3333333333333333;0.6666666666666666;1" calcmod="spline" keySplines="0.3 0.1 0.7 0.9;0.3 0.1 0.7 0.9;0.3 0.1 0.7 0.9" begin="-4s" values="M 1579 466 C 1579 646 1262 813 1091 869 C 920 925 554 982 448 837 C 342 692 436 307 542 162 C 648 17 925 -9 1096 46 C 1267 101 1579 286 1579 466;M 1495 466 C 1495 624 1248 843 1098 892 C 948 941 631 900 538 772 C 445 644 398 253 491 125 C 584 -3 940 16 1090 65 C 1240 114 1495 308 1495 466;M 1524 466 C 1524 639 1283 900 1119 954 C 955 1008 568 964 466 824 C 364 684 400 273 502 133 C 604 -7 934 -13 1098 40 C 1262 93 1524 293 1524 466;M 1579 466 C 1579 646 1262 813 1091 869 C 920 925 554 982 448 837 C 342 692 436 307 542 162 C 648 17 925 -9 1096 46 C 1267 101 1579 286 1579 466"></animate>
</path><path d="M 1595 466 C 1595 645 1271 842 1100 897 C 929 952 606 944 501 799 C 396 654 364 254 470 109 C 576 -36 942 -60 1113 -4 C 1284 52 1595 287 1595 466" fill="url(#lg-0.8672375160363328)" opacity="0.4">
  <animate attributeName="d" dur="10s" repeatCount="indefinite" keyTimes="0;0.3333333333333333;0.6666666666666666;1" calcmod="spline" keySplines="0.3 0.1 0.7 0.9;0.3 0.1 0.7 0.9;0.3 0.1 0.7 0.9" begin="-4s" values="M 1595 466 C 1595 645 1271 842 1100 897 C 929 952 606 944 501 799 C 396 654 364 254 470 109 C 576 -36 942 -60 1113 -4 C 1284 52 1595 287 1595 466;M 1660 466 C 1660 644 1269 840 1100 895 C 931 950 586 958 481 814 C 376 670 343 238 448 94 C 553 -50 952 -84 1121 -29 C 1290 26 1660 288 1660 466;M 1521 466 C 1521 624 1257 868 1107 917 C 957 966 626 903 533 775 C 440 647 416 266 509 138 C 602 10 951 -17 1101 32 C 1251 81 1521 308 1521 466;M 1595 466 C 1595 645 1271 842 1100 897 C 929 952 606 944 501 799 C 396 654 364 254 470 109 C 576 -36 942 -60 1113 -4 C 1284 52 1595 287 1595 466"></animate>
</path><path d="M 1506 466 C 1506 634 1271 878 1111 930 C 951 982 569 956 471 820 C 373 684 380 252 479 116 C 578 -20 954 -60 1114 -8 C 1274 44 1506 298 1506 466" fill="url(#lg-0.8672375160363328)" opacity="0.4">
  <animate attributeName="d" dur="10s" repeatCount="indefinite" keyTimes="0;0.3333333333333333;0.6666666666666666;1" calcmod="spline" keySplines="0.3 0.1 0.7 0.9;0.3 0.1 0.7 0.9;0.3 0.1 0.7 0.9" begin="-4s" values="M 1506 466 C 1506 634 1271 878 1111 930 C 951 982 569 956 471 820 C 373 684 380 252 479 116 C 578 -20 954 -60 1114 -8 C 1274 44 1506 298 1506 466;M 1579 466 C 1579 627 1244 820 1091 870 C 938 920 603 923 509 793 C 415 663 419 271 514 141 C 609 11 920 69 1073 119 C 1226 169 1579 305 1579 466;M 1578 466 C 1578 633 1266 867 1107 919 C 948 971 555 966 457 831 C 359 696 432 288 530 153 C 628 18 942 -20 1101 32 C 1260 84 1578 299 1578 466;M 1506 466 C 1506 634 1271 878 1111 930 C 951 982 569 956 471 820 C 373 684 380 252 479 116 C 578 -20 954 -60 1114 -8 C 1274 44 1506 298 1506 466"></animate>
</path></g>
</svg>