<?xml version="1.0" encoding="utf-8"?>
<svg xmlns="http://www.w3.org/2000/svg" xmlns:xlink="http://www.w3.org/1999/xlink" style="margin: auto; background: rgb(221, 221, 221); display: block; z-index: 1; position: relative; shape-rendering: auto;" width="1920" height="931" preserveAspectRatio="xMidYMid" viewBox="0 0 1920 931">
<g transform="translate(960,465.5) scale(1,1) translate(-960,-465.5)"><linearGradient id="lg-0.26776697156565477" x1="0" x2="1" y1="0" y2="0">
  <stop stop-color="#65106e" offset="0"></stop>
  <stop stop-color="#ffffff" offset="1"></stop>
</linearGradient><path d="M 1600 466 C 1600 635 1256 828 1095 880 C 934 932 584 947 485 810 C 386 673 398 266 497 129 C 596 -8 951 -56 1112 -4 C 1273 48 1600 297 1600 466" fill="url(#lg-0.26776697156565477)" opacity="0.4">
  <animate attributeName="d" dur="10s" repeatCount="indefinite" keyTimes="0;0.3333333333333333;0.6666666666666666;1" calcmod="spline" keySplines="0.3 0.1 0.7 0.9;0.3 0.1 0.7 0.9;0.3 0.1 0.7 0.9" begin="-4s" values="M 1600 466 C 1600 635 1256 828 1095 880 C 934 932 584 947 485 810 C 386 673 398 266 497 129 C 596 -8 951 -56 1112 -4 C 1273 48 1600 297 1600 466;M 1636 466 C 1636 652 1263 798 1086 855 C 909 912 536 1003 427 853 C 318 703 359 258 468 108 C 577 -42 936 -62 1113 -5 C 1290 52 1636 280 1636 466;M 1542 466 C 1542 633 1246 805 1087 857 C 928 909 674 880 576 745 C 478 610 375 246 473 111 C 571 -24 922 40 1081 92 C 1240 144 1542 299 1542 466;M 1600 466 C 1600 635 1256 828 1095 880 C 934 932 584 947 485 810 C 386 673 398 266 497 129 C 596 -8 951 -56 1112 -4 C 1273 48 1600 297 1600 466"></animate>
</path><path d="M 1527 466 C 1527 619 1249 859 1103 906 C 957 953 618 903 528 779 C 438 655 479 305 569 181 C 659 57 933 53 1079 100 C 1225 147 1527 313 1527 466" fill="url(#lg-0.26776697156565477)" opacity="0.4">
  <animate attributeName="d" dur="10s" repeatCount="indefinite" keyTimes="0;0.3333333333333333;0.6666666666666666;1" calcmod="spline" keySplines="0.3 0.1 0.7 0.9;0.3 0.1 0.7 0.9;0.3 0.1 0.7 0.9" begin="-4s" values="M 1527 466 C 1527 619 1249 859 1103 906 C 957 953 618 903 528 779 C 438 655 479 305 569 181 C 659 57 933 53 1079 100 C 1225 147 1527 313 1527 466;M 1573 466 C 1573 621 1229 790 1081 838 C 933 886 630 897 539 771 C 448 645 424 268 515 142 C 606 16 938 31 1086 79 C 1234 127 1573 311 1573 466;M 1484 466 C 1484 635 1268 866 1107 918 C 946 970 567 960 468 823 C 369 686 436 294 536 157 C 636 20 948 -44 1109 8 C 1270 60 1484 297 1484 466;M 1527 466 C 1527 619 1249 859 1103 906 C 957 953 618 903 528 779 C 438 655 479 305 569 181 C 659 57 933 53 1079 100 C 1225 147 1527 313 1527 466"></animate>
</path><path d="M 1585 466 C 1585 645 1296 922 1126 977 C 956 1032 633 924 528 780 C 423 636 422 295 527 151 C 632 7 925 -5 1095 50 C 1265 105 1585 287 1585 466" fill="url(#lg-0.26776697156565477)" opacity="0.4">
  <animate attributeName="d" dur="10s" repeatCount="indefinite" keyTimes="0;0.3333333333333333;0.6666666666666666;1" calcmod="spline" keySplines="0.3 0.1 0.7 0.9;0.3 0.1 0.7 0.9;0.3 0.1 0.7 0.9" begin="-4s" values="M 1585 466 C 1585 645 1296 922 1126 977 C 956 1032 633 924 528 780 C 423 636 422 295 527 151 C 632 7 925 -5 1095 50 C 1265 105 1585 287 1585 466;M 1581 466 C 1581 638 1269 863 1106 916 C 943 969 614 929 513 790 C 412 651 455 311 556 172 C 657 33 916 46 1079 99 C 1242 152 1581 294 1581 466;M 1550 466 C 1550 636 1258 832 1096 885 C 934 938 641 908 541 770 C 441 632 358 238 458 100 C 558 -38 923 27 1085 80 C 1247 133 1550 296 1550 466;M 1585 466 C 1585 645 1296 922 1126 977 C 956 1032 633 924 528 780 C 423 636 422 295 527 151 C 632 7 925 -5 1095 50 C 1265 105 1585 287 1585 466"></animate>
</path><path d="M 1627 466 C 1627 642 1269 844 1101 899 C 933 954 623 929 519 786 C 415 643 411 285 515 142 C 619 -1 946 -63 1114 -9 C 1282 45 1627 290 1627 466" fill="url(#lg-0.26776697156565477)" opacity="0.4">
  <animate attributeName="d" dur="10s" repeatCount="indefinite" keyTimes="0;0.3333333333333333;0.6666666666666666;1" calcmod="spline" keySplines="0.3 0.1 0.7 0.9;0.3 0.1 0.7 0.9;0.3 0.1 0.7 0.9" begin="-4s" values="M 1627 466 C 1627 642 1269 844 1101 899 C 933 954 623 929 519 786 C 415 643 411 285 515 142 C 619 -1 946 -63 1114 -9 C 1282 45 1627 290 1627 466;M 1563 466 C 1563 622 1229 789 1081 837 C 933 885 599 920 508 794 C 417 668 510 331 602 205 C 694 79 941 20 1089 68 C 1237 116 1563 310 1563 466;M 1599 466 C 1599 642 1269 846 1102 901 C 935 956 606 939 503 797 C 400 655 373 256 476 114 C 579 -28 924 7 1091 61 C 1258 115 1599 290 1599 466;M 1627 466 C 1627 642 1269 844 1101 899 C 933 954 623 929 519 786 C 415 643 411 285 515 142 C 619 -1 946 -63 1114 -9 C 1282 45 1627 290 1627 466"></animate>
</path><path d="M 1489 466 C 1489 627 1237 798 1084 848 C 931 898 674 871 580 741 C 486 611 434 282 529 152 C 624 22 933 27 1086 77 C 1239 127 1489 305 1489 466" fill="url(#lg-0.26776697156565477)" opacity="0.4">
  <animate attributeName="d" dur="10s" repeatCount="indefinite" keyTimes="0;0.3333333333333333;0.6666666666666666;1" calcmod="spline" keySplines="0.3 0.1 0.7 0.9;0.3 0.1 0.7 0.9;0.3 0.1 0.7 0.9" begin="-4s" values="M 1489 466 C 1489 627 1237 798 1084 848 C 931 898 674 871 580 741 C 486 611 434 282 529 152 C 624 22 933 27 1086 77 C 1239 127 1489 305 1489 466;M 1613 466 C 1613 643 1253 794 1085 849 C 917 904 571 967 467 824 C 363 681 401 278 505 135 C 609 -8 939 -41 1107 14 C 1275 69 1613 289 1613 466;M 1557 466 C 1557 644 1291 908 1122 963 C 953 1018 653 908 549 764 C 445 620 370 256 474 112 C 578 -32 954 -92 1123 -37 C 1292 18 1557 288 1557 466;M 1489 466 C 1489 627 1237 798 1084 848 C 931 898 674 871 580 741 C 486 611 434 282 529 152 C 624 22 933 27 1086 77 C 1239 127 1489 305 1489 466"></animate>
</path></g>
</svg>